<svg width="41" height="39" viewBox="0 0 41 39" fill="none" xmlns="http://www.w3.org/2000/svg">
<path fill-rule="evenodd" clip-rule="evenodd" d="M35.6147 3.05285C33.6133 1.14905 30.3683 1.14905 28.3668 3.05285L4.18096 26.059C3.46551 26.7395 2.97783 27.6063 2.77941 28.55L1.7765 33.32C1.29836 35.594 3.40617 37.5991 5.79688 37.1442L10.8114 36.1902C11.8036 36.0016 12.7148 35.5376 13.4302 34.8571L37.6161 11.8509C39.6175 9.94714 39.6175 6.86047 37.6161 4.95666L35.6147 3.05285ZM30.7827 5.35095C31.45 4.71635 32.5315 4.71635 33.1988 5.35095L35.2001 7.25476C35.8674 7.88936 35.8674 8.91824 35.2001 9.55285L30.6361 13.8942L26.2189 9.69228L30.7827 5.35095ZM23.8028 11.9904L6.5969 28.3571C6.35842 28.5839 6.19587 28.8728 6.12973 29.1874L5.12682 33.9573L10.1414 33.0033C10.4721 32.9404 10.7758 32.7858 11.0143 32.559L28.2202 16.1923L23.8028 11.9904Z" fill="black" stroke="black"/>
</svg>
